<svg xmlns="http://www.w3.org/2000/svg" width="25.667" height="25.667" viewBox="0 0 25.667 25.667"><path d="M25.667,25.667H0V0H25.667ZM9.856,19.353a9.3,9.3,0,0,0,9.362-9.362c0-.141,0-.282-.006-.424A6.7,6.7,0,0,0,20.854,7.86a6.669,6.669,0,0,1-1.893.52,3.31,3.31,0,0,0,1.45-1.822,6.545,6.545,0,0,1-2.092.8,3.291,3.291,0,0,0-5.692,2.252,3.637,3.637,0,0,0,.083.751A9.344,9.344,0,0,1,5.929,6.917a3.3,3.3,0,0,0,1.02,4.4A3.328,3.328,0,0,1,5.461,10.9v.045A3.3,3.3,0,0,0,8.1,14.174a3.31,3.31,0,0,1-1.482.058,3.29,3.29,0,0,0,3.074,2.284A6.6,6.6,0,0,1,5.6,17.928a6.332,6.332,0,0,1-.783-.045,9.36,9.36,0,0,0,5.037,1.469" fill="#152f33"/></svg>