<svg xmlns="http://www.w3.org/2000/svg" width="210.909" height="52" viewBox="0 0 210.909 52">
  <g id="logo_footer.svg" transform="translate(-0.001)">
    <path id="パス_317" data-name="パス 317" d="M16.78,52a8,8,0,0,1-2.94-.56c-2.55-1-4.21-3.89-4.79-8.25-.16-1.18-.36-5.5-.61-12.84v-.28c0-1.27-.39-1.85-1.31-3.41-.19-.32-.4-.66-.62-1.06C6,24.74,5.38,23.84,4.76,23a16.05,16.05,0,0,1-2.6-4.57c-.63-2.4.69-6.06,3.62-10.08s5.65-5.47,9-6.26V2h.77A4.75,4.75,0,0,1,17,2.2l1,.35c1.44.52,4.32,1.54,7.45,2.62,1.93.67,3.59,1.11,5.19,1.53A41.489,41.489,0,0,1,36,8.38a84.31,84.31,0,0,1,12.86,6.68,5.8,5.8,0,0,1,2.38,2.57c.68,1.16,3.25,7.46-8.75,22-5.45,6.61-10.39,10-14.68,10h0a6.81,6.81,0,0,1-4.07-1.28,11.84,11.84,0,0,1-1.74,2A9.08,9.08,0,0,1,16.78,52ZM16,42a2,2,0,0,0,.19,1.61,3.89,3.89,0,0,0,.88.93,2.54,2.54,0,0,0,0-.39l-.36-.75Z" transform="translate(-1 -1)" fill="#3c3c3c"/>
    <path id="パス_318" data-name="パス 318" d="M15.55,3a3.62,3.62,0,0,1,1.13.15c.29.1,4.11,1.48,8.43,3S32.45,8,35.6,9.31a81.38,81.38,0,0,1,12.67,6.58c1.84,1.25,2,2.16,2,2.16s3.94,5.75-8.6,21c-6.32,7.66-10.89,9.56-13.89,9.56a5.45,5.45,0,0,1-4.25-1.8,15.16,15.16,0,0,1-2.19,2.73A8,8,0,0,1,16.78,51a6.78,6.78,0,0,1-2.56-.49c-3.15-1.27-3.94-5.63-4.18-7.45s-.55-11.2-.61-13-.65-2.53-2.06-5-3.7-4.9-4.24-7,.72-5.48,3.45-9.24S11.69,3.82,15,3h.59M17.6,45.78a.54.54,0,0,0,.22-.05c.41-.2.27-1.77.18-2-.58-1.21-1.44-3.06-1.63-3.26s-.34-.35-.4-.35a.22.22,0,0,0-.17.06.69.69,0,0,0-.3.2c-.34.82-1,2.43-.11,3.72a3.36,3.36,0,0,0,2.21,1.64M15.55,1h-1C11.12,1.83,8.18,3.27,5,7.65,3.14,10.24.23,15,1.19,18.65a16.76,16.76,0,0,0,2.74,4.9c.61.85,1.23,1.73,1.7,2.55l.63,1.07c.93,1.59,1.13,2,1.17,2.94v.26c.25,7.48.45,11.72.62,13,.8,6,3.38,8.22,5.41,9a8.56,8.56,0,0,0,3.32.63,9.91,9.91,0,0,0,5.83-1.9A9.68,9.68,0,0,0,24,49.67a8,8,0,0,0,3.83.94c4.6,0,9.8-3.48,15.46-10.34,12-14.59,9.72-21.47,8.88-23.05a6.89,6.89,0,0,0-2.73-3,83.19,83.19,0,0,0-13-6.78,40.34,40.34,0,0,0-5.47-1.72c-1.59-.42-3.23-.86-5.13-1.51C22.62,3.14,19.7,2.1,18.3,1.6l-1-.35A6.12,6.12,0,0,0,15.55,1Z" transform="translate(-1 -1)" fill="#fff"/>
    <path id="パス_319" data-name="パス 319" d="M47.51,17.32c-6.13,1.32-10.17,4.45-15.2,10.21-4.25,4.87-8.38,13.09-6.2,18.18,1.84,4.3,9.08.32,9.26.14s-7,2.81-7.49-1.69c-.71-6.34,3.12-12.87,7.67-18.07C42.47,18.18,47.65,17.29,47.51,17.32Z" transform="translate(-1 -1)" fill="#fff"/>
    <path id="パス_320" data-name="パス 320" d="M14,34.88s-1.24-1.41-1.73-1.25-.57,6.79-.57,6.79l-.59-10.93,3.3,5.8Z" transform="translate(-1 -1)" fill="#fff"/>
    <path id="パス_321" data-name="パス 321" d="M16.54,50.43c4.74.71,3.92-4.48,4.52-5.27s1.64,0,1.64,0-.64-.48-1.54-1.21A16.07,16.07,0,0,1,19,41.47s1.48,2.09,1.21,3.63a8,8,0,0,1-.88,2.9,3.1,3.1,0,0,1-3.12,1.74,4.51,4.51,0,0,1-2.7-1.43,6.42,6.42,0,0,0,3.03,2.12Z" transform="translate(-1 -1)" fill="#fff"/>
    <path id="パス_322" data-name="パス 322" d="M5.59,13c.24-.12,1.32-1.38,1.8-1.08a11.59,11.59,0,0,1,3.39,2.67c1.45,1.7,4.54,5.64,8.9,7.76s14.47,1.81,14.47,1.81,6.83-7.6,13.63-7.57c0,0-.24-.63-4.7-3a74.1,74.1,0,0,0-12.4-4.75c-.24,0-6.3-1.91-8.54-2.72s-4.78-2-5.38-2.06a5.21,5.21,0,0,0-1.52.16,13.52,13.52,0,0,0-4.11,2,17.42,17.42,0,0,0-3.71,3.86A28.531,28.531,0,0,0,5.59,13Z" transform="translate(-1 -1)" fill="#00caa4"/>
    <g id="グループ_30" data-name="グループ 30">
      <path id="パス_323" data-name="パス 323" d="M105.51,49.76c-.46.62-1.06.77-2.38.78L102.47,49a8.76,8.76,0,0,0,1.19.13.74.74,0,0,0,.74-.33,10,10,0,0,0,.8-4.23h-2.39a11.12,11.12,0,0,1-1.12,3.15,7.73,7.73,0,0,1-2.8,2.9l-1.18-1a6.73,6.73,0,0,0,2.7-2.54,7.89,7.89,0,0,0,1-2.56h-3.2v-1.3h3.39a20.243,20.243,0,0,0,0-2.33l1.38.12c.32,0,.33.08.33.16s0,.07-.13.17-.1.12-.1.28a11.648,11.648,0,0,1-.09,1.6h3.67C106.59,47.05,106,49.14,105.51,49.76Z" transform="translate(-1 -1)" fill="#3c3c3c"/>
      <path id="パス_324" data-name="パス 324" d="M116.07,43.41a14.62,14.62,0,0,1-2.35,4.4,10.24,10.24,0,0,1-3.2,2.58l-1.27-1a9.48,9.48,0,0,0,5.3-6h-6.21V42h6.6a.6.6,0,0,0,.38-.19l1.16,1.06a1.44,1.44,0,0,0-.41.54Z" transform="translate(-1 -1)" fill="#3c3c3c"/>
      <path id="パス_325" data-name="パス 325" d="M117.94,50.08V49h2.88V45.06h-2.16V44h5.49v1.09H122V49h2.87v1.09Z" transform="translate(-1 -1)" fill="#3c3c3c"/>
      <path id="パス_326" data-name="パス 326" d="M128.33,47.15a1.32,1.32,0,1,1,1.31-1.31,1.32,1.32,0,0,1-1.31,1.31Z" transform="translate(-1 -1)" fill="#3c3c3c"/>
      <path id="パス_327" data-name="パス 327" d="M138.45,44.67a17.2,17.2,0,0,1-2.1,2.06V51H135V47.71a11.44,11.44,0,0,1-2.83,1.36l-.81-1.16a10.57,10.57,0,0,0,5.47-3.5h-4.42v-1.2h5.42a.74.74,0,0,0,.42-.16l1,1a3.44,3.44,0,0,0-.8.62Zm-1.95-1.75a10.721,10.721,0,0,0-2.42-1.25l.57-1.14a10,10,0,0,1,2.52,1.29Zm2.65,6.23a7.93,7.93,0,0,0-2.26-1.86l.77-.89A7.42,7.42,0,0,1,140,48.12Z" transform="translate(-1 -1)" fill="#3c3c3c"/>
      <path id="パス_328" data-name="パス 328" d="M143.32,41.6c-.18.13-.19.14-.19.18v5h-1.39V41.19l1.39.12c.09,0,.3,0,.3.13S143.36,41.55,143.32,41.6Zm4.84-.08c-.15.15-.15.19-.15.52v.75a13.16,13.16,0,0,1-.39,4.36,6.06,6.06,0,0,1-3.43,3.58l-1-1.14c2.39-1,3.4-2.07,3.4-5.62,0-.29,0-1.92-.09-2.86l1.5.08c.06,0,.29,0,.29.15s-.01.08-.13.18Z" transform="translate(-1 -1)" fill="#3c3c3c"/>
      <path id="パス_329" data-name="パス 329" d="M151.11,46.45a7.311,7.311,0,0,0-.89-1.9l1.08-.41a8,8,0,0,1,.9,1.9Zm6.07-2.11c-.1.06-.11.11-.23.57a8.4,8.4,0,0,1-4.36,5.64l-.93-.83a7.18,7.18,0,0,0,4.3-6.07l1.14.35a.232.232,0,0,1,.24.21c0,.08-.03.08-.16.13Zm-3.92,1.53a7.71,7.71,0,0,0-.83-1.9l1-.4a7.211,7.211,0,0,1,.8,1.9Z" transform="translate(-1 -1)" fill="#3c3c3c"/>
      <path id="パス_330" data-name="パス 330" d="M166.49,43.91a13.921,13.921,0,0,1-2.08,4,11.34,11.34,0,0,1-3.17,2.79L160,49.8a10.28,10.28,0,0,0,3.66-3.07,9.55,9.55,0,0,0,1.54-3.09h-3a16.658,16.658,0,0,1-2.2,2.62l-1.16-.8A10.29,10.29,0,0,0,162,40.94l1.2.46c.07,0,.3.13.3.25s-.13.11-.29.16-.21.41-.33.64h2.62a1.13,1.13,0,0,0,.51-.23l1,1.12a1.24,1.24,0,0,0-.52.57Z" transform="translate(-1 -1)" fill="#3c3c3c"/>
    </g>
    <g id="グループ_31" data-name="グループ 31">
      <path id="パス_331" data-name="パス 331" d="M67.29,30.91c-8.2,0-11.83-6.21-11.83-13,0-6.59,3.36-13.52,12.17-13.52,7.05,0,10.1,4.71,10.51,8.67H73.29a5.36,5.36,0,0,0-5.56-4.61c-3.86,0-7.42,3.14-7.42,9.39,0,5.84,3.12,9.08,6.91,9.08A6.41,6.41,0,0,0,71.73,25a4.9,4.9,0,0,0,1.56-3.35h4.85C77.7,25.86,74.54,30.91,67.29,30.91Z" transform="translate(-1 -1)" fill="#3c3c3c"/>
      <path id="パス_332" data-name="パス 332" d="M93.35,30.09a4.81,4.81,0,0,1-.54-2.66c-.51,1-1.63,3.11-5.9,3.11-5,0-6.37-3.08-6.37-5.4,0-4.23,3.76-5.49,7.83-6.07,2-.28,4.17-.65,4.17-2.36,0-1.47-1.56-1.91-3-1.91a5,5,0,0,0-3.49,1.12,2.54,2.54,0,0,0-.71,1.81h-4c.34-5.7,5.39-6.45,7.83-6.45,4.21,0,7.87,1.84,7.87,6.59V28a2.35,2.35,0,0,0,1,2.11Zm-4-8.19c-1.7.27-4.21.89-4.21,3.11,0,1.29,1.26,2.32,2.89,2.32,1.83,0,4.54-1.16,4.54-3.72V21.52l.24-1.19c-.81.92-1.56,1.23-3.49,1.57Z" transform="translate(-1 -1)" fill="#3c3c3c"/>
      <path id="パス_333" data-name="パス 333" d="M105.72,15.34V30.09h-4.47V15.34H98.81V11.72h2.44V9.85c0-3.28,2.44-4.68,5-4.68h2.58V9.06h-1.46c-.95,0-1.66.44-1.66,1.54v1.12h3.12v3.62Z" transform="translate(-1 -1)" fill="#3c3c3c"/>
      <path id="パス_334" data-name="パス 334" d="M114.53,22.24c.17.92.85,4.64,4.44,4.64a3.31,3.31,0,0,0,3.32-2.22h4.51c-.57,1.54-2.13,5.88-8.07,5.88-4.94,0-8.67-3.31-8.67-9.6,0-6.55,4-9.66,8.54-9.66a7.76,7.76,0,0,1,6.71,3.48c1.56,2.39,1.73,4.89,1.83,7.48Zm4.1-7.27c-3.32,0-3.9,3.17-4.1,4.33h7.76c-.1-2.86-1.42-4.3-3.66-4.3Z" transform="translate(-1 -1)" fill="#3c3c3c"/>
      <path id="パス_335" data-name="パス 335" d="M146.22,30.09l-9.76-15.87-1.86-4.1.47,5.56V30.09h-4.41V5.17h4.88l9.77,15.88,1.86,4.09-.47-5.56V5.17h4.4V30.09Z" transform="translate(-1 -1)" fill="#3c3c3c"/>
      <path id="パス_336" data-name="パス 336" d="M159.1,22.24c.17.92.85,4.64,4.44,4.64a3.32,3.32,0,0,0,3.32-2.22h4.51c-.58,1.54-2.14,5.88-8.07,5.88-5,0-8.68-3.31-8.68-9.6,0-6.55,4-9.66,8.55-9.66a7.78,7.78,0,0,1,6.71,3.48c1.56,2.39,1.73,4.89,1.83,7.48ZM163.2,15c-3.32,0-3.9,3.17-4.1,4.33h7.76C166.76,16.44,165.44,15,163.2,15Z" transform="translate(-1 -1)" fill="#3c3c3c"/>
      <path id="パス_337" data-name="パス 337" d="M183.37,15.79c-3.16,0-4.89,2.18-4.89,4.44v9.86H174V11.72h4.47v1.34l-.33,2.69c1.83-3.31,3-4.37,6.78-4.47v4.51Z" transform="translate(-1 -1)" fill="#3c3c3c"/>
      <path id="パス_338" data-name="パス 338" d="M187.29,9.61V5.17h4.48V9.61Zm0,20.48V11.72h4.48V30.09Z" transform="translate(-1 -1)" fill="#3c3c3c"/>
      <path id="パス_339" data-name="パス 339" d="M203.36,30.54c-6.17,0-8.64-4.58-8.64-9.43,0-7.06,4.84-9.83,9.22-9.83a8.1,8.1,0,0,1,5.93,2.29,6.58,6.58,0,0,1,2,4.71H207.4a3.49,3.49,0,0,0-3.53-3.42c-2.34,0-4.71,2-4.71,6,0,2.39.85,6,4.27,6,3.22,0,3.73-2.73,3.9-3.62h4.58C211.53,25,210.24,30.54,203.36,30.54Z" transform="translate(-1 -1)" fill="#3c3c3c"/>
    </g>
    <path id="パス_340" data-name="パス 340" d="M210.59,37.23H56.09a1.18,1.18,0,0,1,0-2.36h154.5a1.18,1.18,0,0,1,0,2.36Z" transform="translate(-1 -1)" fill="#ff1d25"/>
  </g>
</svg>
