<svg xmlns="http://www.w3.org/2000/svg" width="38" height="38" viewBox="0 0 38 38"><path d="M38,38H0V0H38ZM14.615,27.769c8.844,0,13.154-6.8,13.154-13.154,0-.206.009.206,0,0a13.932,13.932,0,0,0,2.923-2.923c-.863.385-1.948-.122-2.923,0,.994-.591,1.1-.336,1.462-1.462-.928.553-1.826-.216-2.923,0a3.554,3.554,0,0,0-2.923-1.462C20.731,8.769,19,11.961,19,14.615c0,.375-.075-.356,0,0-4-.2-7.858-1.477-10.231-4.385-.413.713-1.462,2.042-1.462,2.923,0,1.669,1.638,2.06,2.923,2.923-.788-.028-2.276.356-2.923,0h0c0,2.326,2.19,3.944,4.385,4.385a6.346,6.346,0,0,1-1.462,0c-.309,0,.291.056,0,0,.61,1.913,2.284,4.347,4.385,4.385-1.651,1.294-3.6,1.462-5.846,1.462-.385,0-1.086.047-1.462,0,2.119,1.35,4.6,1.462,7.308,1.462" fill="#fff"/></svg>