<svg xmlns="http://www.w3.org/2000/svg" width="176" height="43" viewBox="0 0 176 43"><g transform="translate(-1.001 -1)"><path d="M14.223,43.346a6.615,6.615,0,0,1-2.431-.463c-2.109-.827-3.482-3.217-3.961-6.822-.132-.976-.3-4.548-.5-10.618v-.232c0-1.05-.323-1.53-1.083-2.82-.157-.265-.331-.546-.513-.877-.422-.711-.934-1.455-1.447-2.15a13.272,13.272,0,0,1-2.15-3.779C1.612,13.6,2.7,10.575,5.127,7.251S9.8,2.728,12.569,2.074V2h.637a3.928,3.928,0,0,1,1.2.165l.827.289c1.191.43,3.572,1.273,6.161,2.167,1.6.554,2.969.918,4.292,1.265a34.309,34.309,0,0,1,4.432,1.389A69.719,69.719,0,0,1,40.751,12.8a4.8,4.8,0,0,1,1.968,2.125c.562.959,2.688,6.169-7.236,18.192-4.507,5.466-8.592,8.269-12.139,8.269h0a5.631,5.631,0,0,1-3.366-1.058,9.79,9.79,0,0,1-1.439,1.654A7.508,7.508,0,0,1,14.223,43.346Zm-.645-8.269a1.654,1.654,0,0,0,.157,1.331,3.217,3.217,0,0,0,.728.769,2.1,2.1,0,0,0,0-.323l-.3-.62Z" transform="translate(-0.174 -0.173)" fill="#3c3c3c"/><path d="M13.032,2.654a2.993,2.993,0,0,1,.934.124c.24.083,3.4,1.224,6.971,2.481s6.07,1.53,8.674,2.613a67.3,67.3,0,0,1,10.477,5.441c1.522,1.034,1.654,1.786,1.654,1.786S45,19.854,34.631,32.464C29.4,38.8,25.626,40.369,23.145,40.369a4.507,4.507,0,0,1-3.514-1.488,12.536,12.536,0,0,1-1.811,2.257,6.615,6.615,0,0,1-3.771,1.207,5.607,5.607,0,0,1-2.117-.405c-2.6-1.05-3.258-4.656-3.457-6.161s-.455-9.261-.5-10.75-.538-2.092-1.7-4.135-3.06-4.052-3.506-5.788.6-4.531,2.853-7.641a10.86,10.86,0,0,1,6.963-4.813h.488m1.662,35.375a.447.447,0,0,0,.182-.041c.339-.165.223-1.464.149-1.654-.48-1-1.191-2.53-1.348-2.7s-.281-.289-.331-.289a.182.182,0,0,0-.141.05.571.571,0,0,0-.248.165c-.281.678-.827,2.009-.091,3.076A2.778,2.778,0,0,0,14.727,38m-1.7-37H12.2c-2.836.686-5.268,1.877-7.9,5.5C2.77,8.641.363,12.577,1.157,15.6a13.859,13.859,0,0,0,2.266,4.052c.5.7,1.017,1.431,1.406,2.109l.521.885a4.575,4.575,0,0,1,.968,2.431v.215c.207,6.185.372,9.691.513,10.75.662,4.961,2.8,6.8,4.474,7.442A7.079,7.079,0,0,0,14.049,44a8.2,8.2,0,0,0,4.821-1.571,8,8,0,0,0,1.149-1.182,6.616,6.616,0,0,0,3.167.777c3.8,0,8.1-2.878,12.784-8.55,9.923-12.065,8.038-17.754,7.343-19.06a5.7,5.7,0,0,0-2.257-2.481,68.792,68.792,0,0,0-10.75-5.606A33.358,33.358,0,0,0,25.783,4.9c-1.315-.347-2.671-.711-4.242-1.249C18.878,2.77,16.464,1.91,15.306,1.5l-.827-.289A5.061,5.061,0,0,0,13.032,1Z" transform="translate(0)" fill="#fff"/><path d="M43.7,17.32c-5.069,1.092-8.41,3.68-12.569,8.443C27.618,29.79,24.2,36.587,26.006,40.8c1.522,3.556,7.508.265,7.657.116s-5.788,2.324-6.194-1.4c-.587-5.243,2.58-10.643,6.343-14.943C39.534,18.031,43.818,17.3,43.7,17.32Z" transform="translate(-4.242 -2.825)" fill="#fff"/><path d="M13.5,33.947s-1.025-1.166-1.431-1.034-.471,5.615-.471,5.615L11.11,29.49l2.729,4.8Z" transform="translate(-1.75 -4.931)" fill="#fff"/><path d="M16.016,48.879c3.92.587,3.242-3.7,3.738-4.358s1.356,0,1.356,0-.529-.4-1.273-1A13.288,13.288,0,0,1,18.05,41.47s1.224,1.728,1,3a6.615,6.615,0,0,1-.728,2.4,2.563,2.563,0,0,1-2.58,1.439,3.729,3.729,0,0,1-2.233-1.183,5.309,5.309,0,0,0,2.506,1.753Z" transform="translate(-2.165 -7.005)" fill="#fff"/><path d="M5.59,11.452c.2-.1,1.092-1.141,1.488-.893a9.584,9.584,0,0,1,2.8,2.208c1.2,1.406,3.754,4.664,7.36,6.417s11.966,1.5,11.966,1.5,5.648-6.285,11.271-6.26c0,0-.2-.521-3.887-2.481A61.275,61.275,0,0,0,26.338,8.012c-.2,0-5.21-1.579-7.062-2.249s-3.953-1.654-4.449-1.7a4.308,4.308,0,0,0-1.257.132,11.18,11.18,0,0,0-3.4,1.654A14.4,14.4,0,0,0,7.1,9.037,23.593,23.593,0,0,0,5.59,11.452Z" transform="translate(-0.794 -0.529)" fill="#00caa4"/><g transform="translate(83.012 33.688)"><path d="M104.16,48.225c-.38.513-.877.637-1.968.645l-.546-1.273a7.244,7.244,0,0,0,.984.108.612.612,0,0,0,.612-.273,8.269,8.269,0,0,0,.662-3.5h-1.976a9.2,9.2,0,0,1-.926,2.6,6.392,6.392,0,0,1-2.315,2.4l-.976-.827a5.565,5.565,0,0,0,2.233-2.1,6.524,6.524,0,0,0,.827-2.117H98.123V42.817h2.8a16.74,16.74,0,0,0,0-1.927l1.141.1c.265,0,.273.066.273.132s0,.058-.107.141-.083.1-.083.232a9.632,9.632,0,0,1-.074,1.323h3.035C105.053,45.984,104.565,47.712,104.16,48.225Z" transform="translate(-97.71 -40.592)" fill="#fff"/><path d="M114.732,43.133a12.09,12.09,0,0,1-1.943,3.638,8.468,8.468,0,0,1-2.646,2.133l-1.05-.827a7.839,7.839,0,0,0,4.383-4.962H108.34V41.967H113.8a.5.5,0,0,0,.314-.157l.959.877a1.191,1.191,0,0,0-.339.447Z" transform="translate(-99.55 -40.752)" fill="#fff"/><path d="M117.94,49.028v-.893h2.382V44.877h-1.786V44h4.54v.9H121.3v3.233h2.373v.9Z" transform="translate(-101.211 -41.131)" fill="#fff"/><path d="M128.1,46.693a1.092,1.092,0,1,1,1.083-1.083,1.092,1.092,0,0,1-1.083,1.083Z" transform="translate(-102.779 -41.219)" fill="#fff"/><path d="M137.223,43.953a14.22,14.22,0,0,1-1.737,1.7v3.531H134.37V46.467a9.46,9.46,0,0,1-2.34,1.125l-.67-.959a8.741,8.741,0,0,0,4.523-2.894h-3.655v-.992h4.482a.612.612,0,0,0,.347-.132l.827.827A2.844,2.844,0,0,0,137.223,43.953Zm-1.612-1.447a8.865,8.865,0,0,0-2-1.034l.471-.943a8.269,8.269,0,0,1,2.084,1.067Zm2.191,5.152a6.558,6.558,0,0,0-1.869-1.538l.637-.736a6.136,6.136,0,0,1,1.935,1.422Z" transform="translate(-103.534 -40.53)" fill="#fff"/><path d="M143.047,41.515c-.149.108-.157.116-.157.149V45.8H141.74V41.176l1.149.1c.074,0,.248,0,.248.107S143.08,41.474,143.047,41.515Zm4-.066c-.124.124-.124.157-.124.43v.62A10.882,10.882,0,0,1,146.6,46.1a5.011,5.011,0,0,1-2.836,2.96l-.827-.943c1.976-.827,2.812-1.712,2.812-4.647,0-.24,0-1.588-.074-2.365l1.24.066c.05,0,.24,0,.24.124s-.008.066-.107.149Z" transform="translate(-105.331 -40.63)" fill="#fff"/><path d="M150.956,45.952a6.045,6.045,0,0,0-.736-1.571l.893-.339a6.615,6.615,0,0,1,.744,1.571Zm5.019-1.745c-.083.05-.091.091-.19.471a6.946,6.946,0,0,1-3.605,4.664l-.769-.686a5.937,5.937,0,0,0,3.556-5.019l.943.289a.192.192,0,0,1,.2.174c0,.066-.025.066-.132.108Zm-3.242,1.265a6.376,6.376,0,0,0-.686-1.571l.827-.331a5.962,5.962,0,0,1,.662,1.571Z" transform="translate(-106.798 -41.056)" fill="#fff"/><path d="M165.166,43.4a11.512,11.512,0,0,1-1.72,3.308,9.378,9.378,0,0,1-2.621,2.307l-1.025-.744a8.5,8.5,0,0,0,3.027-2.539,7.9,7.9,0,0,0,1.273-2.555h-2.481a13.776,13.776,0,0,1-1.819,2.167l-.959-.662a8.509,8.509,0,0,0,2.613-3.738l.992.38c.058,0,.248.108.248.207s-.107.091-.24.132-.174.339-.273.529h2.167a.935.935,0,0,0,.422-.19l.827.926a1.025,1.025,0,0,0-.43.471Z" transform="translate(-108.29 -40.601)" fill="#fff"/></g><path d="M183.645,36.822H55.886a.976.976,0,0,1,0-1.952h127.76a.976.976,0,1,1,0,1.952Z" transform="translate(-7.736 -5.862)" fill="#ff1d25"/><g transform="translate(47.628 3.803)"><path d="M65.243,26.32c-6.781,0-9.783-5.135-9.783-10.75,0-5.449,2.778-11.18,10.064-11.18,5.83,0,8.352,3.895,8.691,7.169H70.2a4.432,4.432,0,0,0-4.6-3.812c-3.192,0-6.136,2.6-6.136,7.765,0,4.829,2.58,7.508,5.714,7.508a5.3,5.3,0,0,0,3.729-1.588,4.052,4.052,0,0,0,1.29-2.77h4.011C73.851,22.144,71.238,26.32,65.243,26.32Z" transform="translate(-55.46 -4.39)" fill="#fff"/><path d="M91.133,26.834a3.977,3.977,0,0,1-.447-2.2c-.422.827-1.348,2.572-4.879,2.572-4.135,0-5.268-2.547-5.268-4.465,0-3.5,3.109-4.54,6.475-5.019,1.654-.232,3.448-.538,3.448-1.952,0-1.216-1.29-1.579-2.481-1.579a4.135,4.135,0,0,0-2.886.926,2.1,2.1,0,0,0-.587,1.5H81.2c.281-4.713,4.457-5.334,6.475-5.334,3.481,0,6.508,1.522,6.508,5.449v8.377a1.943,1.943,0,0,0,.827,1.745Zm-3.308-6.773c-1.406.223-3.481.736-3.481,2.572a2.171,2.171,0,0,0,2.39,1.918c1.513,0,3.754-.959,3.754-3.076V19.748l.2-.984c-.67.761-1.29,1.017-2.886,1.3Z" transform="translate(-59.801 -5.582)" fill="#fff"/><path d="M104.524,13.58v12.2h-3.7V13.58H98.81V10.586h2.018V9.04c0-2.712,2.018-3.87,4.135-3.87H107.1V8.387h-1.207c-.786,0-1.373.364-1.373,1.273v.926h2.58V13.58Z" transform="translate(-62.963 -4.525)" fill="#fff"/><path d="M113.756,20.342c.141.761.7,3.837,3.672,3.837a2.737,2.737,0,0,0,2.745-1.836H123.9a6.591,6.591,0,0,1-6.673,4.862c-4.085,0-7.169-2.737-7.169-7.938,0-5.416,3.308-7.988,7.062-7.988a6.417,6.417,0,0,1,5.549,2.878,11.377,11.377,0,0,1,1.513,6.185Zm3.39-6.012c-2.745,0-3.225,2.621-3.39,3.581h6.417c-.083-2.365-1.174-3.556-3.027-3.556Z" transform="translate(-64.91 -5.582)" fill="#fff"/><path d="M143.527,25.777l-8.071-13.123-1.538-3.39.389,4.6V25.777H130.66V5.17H134.7L142.774,18.3l1.538,3.382-.389-4.6V5.17h3.638V25.777Z" transform="translate(-68.475 -4.525)" fill="#fff"/><path d="M158.325,20.343c.141.761.7,3.837,3.672,3.837a2.745,2.745,0,0,0,2.745-1.836h3.729a6.608,6.608,0,0,1-6.673,4.862c-4.135,0-7.178-2.737-7.178-7.938,0-5.416,3.308-7.988,7.07-7.988a6.434,6.434,0,0,1,5.549,2.878,11.377,11.377,0,0,1,1.513,6.185Zm3.39-5.987c-2.745,0-3.225,2.621-3.39,3.581h6.417C164.659,15.546,163.567,14.356,161.715,14.356Z" transform="translate(-72.622 -5.582)" fill="#fff"/><path d="M181.748,15.009a3.737,3.737,0,0,0-4.044,3.672v8.153H174V11.644h3.7v1.108l-.273,2.224c1.513-2.737,2.481-3.614,5.607-3.7v3.729Z" transform="translate(-75.976 -5.582)" fill="#fff"/><path d="M187.29,8.842V5.17h3.7V8.842Zm0,16.935V10.586h3.7V25.777Z" transform="translate(-78.277 -4.525)" fill="#fff"/><path d="M201.865,27.206c-5.1,0-7.145-3.787-7.145-7.8,0-5.838,4-8.129,7.624-8.129a6.7,6.7,0,0,1,4.9,1.894,5.441,5.441,0,0,1,1.654,3.895h-3.7a2.886,2.886,0,0,0-2.919-2.828c-1.935,0-3.895,1.654-3.895,4.962,0,1.976.7,4.962,3.531,4.962a3.174,3.174,0,0,0,3.225-2.993h3.787C208.621,22.625,207.554,27.206,201.865,27.206Z" transform="translate(-79.563 -5.582)" fill="#fff"/></g></g></svg>